<svg width="60px" height="60px" xmlns="http://www.w3.org/2000/svg" xmlns:xlink="http://www.w3.org/1999/xlink">
<g style="">  <path d="M57.377998,0.001000 L3.352000,0.001000 C1.502000,0.001000,0.000000,1.500000,0.000000,3.353000 L0.000000,57.379001 C0.000000,59.232001,1.502000,60.733001,3.352000,60.733001 L32.438000,60.733001 L32.438000,37.214001 L24.524000,37.214001 L24.524000,28.047001 L32.438000,28.047001 L32.438000,21.287001 C32.438000,13.444001,37.227000,9.171000,44.225000,9.171000 C47.580000,9.171000,50.457000,9.422000,51.296000,9.531000 L51.296000,17.729000 L46.442000,17.731000 C42.637000,17.731000,41.903000,19.540000,41.903000,22.193000 L41.903000,28.044000 L50.981000,28.044000 L49.794000,37.210001 L41.902000,37.210001 L41.902000,60.730001 L57.377000,60.730001 C59.229000,60.730001,60.732000,59.227001,60.732000,57.379001 L60.732000,3.351000 C60.730999,1.500000,59.230000,0.001000,57.377998,0.001000 Z" style="fill: rgba(255, 255, 255, 1.000000); stroke-width: 0.000000px; stroke: rgba(0, 0, 0, 1.000000); " fill="#ffffff" stroke="#000000" stroke-width="0.000000" />
</g></svg>